<svg width="22" height="23" viewBox="0 0 22 23" fill="none" xmlns="http://www.w3.org/2000/svg">
<path d="M1.16602 8.5V6C1.16602 3.51 3.17602 1.5 5.66602 1.5H8.16602M14.166 1.5H16.666C19.156 1.5 21.166 3.51 21.166 6V8.5M21.166 15.5V17C21.166 19.49 19.156 21.5 16.666 21.5H15.166M8.16602 21.5H5.66602C3.17602 21.5 1.16602 19.49 1.16602 17V14.5M9.66602 6.5V8.5C9.66602 9.5 9.16602 10 8.16602 10H6.16602C5.16602 10 4.66602 9.5 4.66602 8.5V6.5C4.66602 5.5 5.16602 5 6.16602 5H8.16602C9.16602 5 9.66602 5.5 9.66602 6.5ZM17.666 6.5V8.5C17.666 9.5 17.166 10 16.166 10H14.166C13.166 10 12.666 9.5 12.666 8.5V6.5C12.666 5.5 13.166 5 14.166 5H16.166C17.166 5 17.666 5.5 17.666 6.5ZM9.66602 14.5V16.5C9.66602 17.5 9.16602 18 8.16602 18H6.16602C5.16602 18 4.66602 17.5 4.66602 16.5V14.5C4.66602 13.5 5.16602 13 6.16602 13H8.16602C9.16602 13 9.66602 13.5 9.66602 14.5ZM17.666 14.5V16.5C17.666 17.5 17.166 18 16.166 18H14.166C13.166 18 12.666 17.5 12.666 16.5V14.5C12.666 13.5 13.166 13 14.166 13H16.166C17.166 13 17.666 13.5 17.666 14.5Z" stroke="#9DB2CE" stroke-width="1.5" stroke-linecap="round" stroke-linejoin="round"/>
</svg>
